<svg width="60" height="60" viewBox="0 0 60 60" fill="none" xmlns="http://www.w3.org/2000/svg">
<g clip-path="url(#clip0_56_152)">
<path d="M30 60C46.5685 60 60 46.5685 60 30C60 13.4315 46.5685 0 30 0C13.4315 0 0 13.4315 0 30C0 46.5685 13.4315 60 30 60Z" fill="#273B7A"/>
<path d="M35.2933 11.7428L11.3234 13.2899C3.5647 24.4317 4.15959 39.3301 12.7622 49.4218L35.0118 47.9857L35.2933 11.7428Z" fill="#121149"/>
<path d="M30 48.3333C40.1252 48.3333 48.3333 40.1252 48.3333 30C48.3333 19.8748 40.1252 11.6667 30 11.6667C19.8748 11.6667 11.6667 19.8748 11.6667 30C11.6667 40.1252 19.8748 48.3333 30 48.3333Z" fill="#FF5419"/>
<path d="M11.6675 30.0674C11.7038 40.1616 19.8972 48.3334 30.0001 48.3334C40.1027 48.3334 48.2962 40.1617 48.3326 30.0674H11.6675Z" fill="#E03A00"/>
<path d="M27.2096 29.3881L33.5076 23.0903C34.2709 22.3271 34.2709 21.0897 33.5076 20.3263C32.7444 19.5631 31.5068 19.5631 30.7437 20.3263L22.4517 28.6183C21.6885 29.3815 21.6885 30.6189 22.4517 31.3824L30.7437 39.6743C31.5069 40.4376 32.7445 40.4376 33.5076 39.6743C34.2709 38.9111 34.2709 37.6737 33.5076 36.9104L27.2096 30.6124C26.8717 30.274 26.8717 29.7261 27.2096 29.3881Z" fill="#FFEDB5"/>
<path d="M27.2097 30.6121C27.0579 30.4603 26.9781 30.2658 26.9626 30.0674H21.8824C21.8989 30.5449 22.0871 31.0175 22.4517 31.3819L30.7437 39.6738C31.5069 40.4371 32.7446 40.4371 33.5077 39.6738C34.2709 38.9106 34.2709 37.6732 33.5077 36.9098L27.2097 30.6121Z" fill="#FEE187"/>
</g>
<defs>
<clipPath id="clip0_56_152">
<rect width="60" height="60" fill="white"/>
</clipPath>
</defs>
</svg>
