<svg width="60" height="60" viewBox="0 0 60 60" fill="none" xmlns="http://www.w3.org/2000/svg">
<g clip-path="url(#clip0_56_138)">
<path d="M30 60C46.5685 60 60 46.5685 60 30C60 13.4315 46.5685 0 30 0C13.4315 0 0 13.4315 0 30C0 46.5685 13.4315 60 30 60Z" fill="#273B7A"/>
<path d="M25.8666 48.0265L49.4461 47.6149C57.5463 36.7385 57.3008 21.6809 48.8618 11.0742L25.6655 11.4791L25.8666 48.0265Z" fill="#121149"/>
<path d="M30 48.3333C40.1252 48.3333 48.3333 40.1252 48.3333 30C48.3333 19.8748 40.1252 11.6667 30 11.6667C19.8748 11.6667 11.6667 19.8748 11.6667 30C11.6667 40.1252 19.8748 48.3333 30 48.3333Z" fill="#FF5419"/>
<path d="M11.6675 30.0674C11.7038 40.1616 19.8972 48.3334 30.0001 48.3334C40.1029 48.3334 48.2962 40.1617 48.3326 30.0674H11.6675Z" fill="#E03A00"/>
<path d="M31.5782 30.6119L25.2802 36.9096C24.517 37.6729 24.517 38.9105 25.2802 39.6736C26.0434 40.4369 27.2811 40.4369 28.0442 39.6736L36.3361 31.3817C37.0994 30.6184 37.0994 29.3808 36.3361 28.6176L28.0442 20.3256C27.2809 19.5624 26.0433 19.5624 25.2802 20.3256C24.517 21.0888 24.517 22.3265 25.2802 23.0896L31.5782 29.3876C31.9162 29.7259 31.9162 30.2739 31.5782 30.6119Z" fill="#FFEDB5"/>
<path d="M31.8251 30.0674C31.8098 30.2658 31.73 30.4603 31.5781 30.6121L25.2801 36.9098C24.5168 37.6731 24.5168 38.9107 25.2801 39.6738C26.0433 40.4371 27.2809 40.4371 28.0441 39.6738L36.336 31.3819C36.7005 31.0174 36.8889 30.5447 36.9053 30.0671H31.8251V30.0674Z" fill="#FDE085"/>
</g>
<defs>
<clipPath id="clip0_56_138">
<rect width="60" height="60" fill="white"/>
</clipPath>
</defs>
</svg>
