<svg width="91" height="98" viewBox="0 0 91 98" fill="none" xmlns="http://www.w3.org/2000/svg">
<path d="M78.1855 14.0603C75.5609 15.7432 71.0942 18.8993 68.8495 19.5025C68.7626 19.5331 68.6917 19.5725 68.608 19.6031C65.9898 16.0973 62.4022 13.9248 58.4315 13.9248C50.4287 13.9248 43.9396 22.7329 43.9396 33.5955C43.9396 34.1681 43.9042 35.2216 43.9396 35.7811C33.5763 35.7811 26.0083 28.4418 20.3436 19.0086C19.5868 17.7409 18.7817 18.401 18.6142 19.3015C18.2374 21.3385 18.1086 24.7437 18.1086 27.1741C18.1086 33.2983 21.635 39.3131 27.1258 43.0418C26.1146 43.3959 25.0003 43.6494 23.841 43.6494C22.4755 43.6494 20.9039 43.1642 19.5288 42.185C19.02 41.8222 17.9218 41.9228 18.2471 43.6887C19.5514 50.7658 25.5027 55.736 30.8196 57.1828C29.6119 58.1489 27.0356 57.9522 25.8505 57.9522C25.4125 57.9522 23.8893 57.8123 22.9038 57.6462C22.0053 57.4976 20.6238 57.8123 21.7799 60.1903C24.2628 65.2915 29.8792 68.4957 34.7131 68.6181C30.2625 73.3565 22.9843 75.0876 16.0121 75.0876C14.6016 75.0438 14.6724 77.2251 15.8092 78.0338C20.9522 81.6969 29.3769 83.8651 35.3958 83.8651C59.3235 83.8651 72.9233 59.1106 72.9233 35.7768C72.9233 35.4008 72.9169 34.614 72.9072 33.8228C72.9072 33.7441 72.9233 33.6698 72.9233 33.5911C72.9233 33.4731 72.8976 33.3594 72.8976 33.2414C72.8879 32.6469 72.8783 32.0918 72.8686 31.8033C74.7654 29.9455 77.6702 26.7195 79.1388 24.2497C79.6379 23.4104 79.2354 22.3919 78.5559 22.711C76.8072 23.5372 73.7832 25.1371 71.8896 25.4431C75.68 22.0379 77.5543 19.0742 79.1645 15.7826C79.7152 14.6592 79.026 13.5183 78.1855 14.0603Z" fill="white"/>
</svg>
